<svg width="26" height="8" viewBox="0 0 26 8" fill="none" xmlns="http://www.w3.org/2000/svg">
<path d="M1 3.5C0.723858 3.5 0.5 3.72386 0.5 4C0.5 4.27614 0.723858 4.5 1 4.5V3.5ZM25.3744 4.35355C25.5696 4.15829 25.5696 3.84171 25.3744 3.64645L22.1924 0.464466C21.9971 0.269204 21.6806 0.269204 21.4853 0.464466C21.29 0.659728 21.29 0.976311 21.4853 1.17157L24.3137 4L21.4853 6.82843C21.29 7.02369 21.29 7.34027 21.4853 7.53553C21.6806 7.7308 21.9971 7.7308 22.1924 7.53553L25.3744 4.35355ZM1 4.5H25.0208V3.5H1V4.5Z" fill="white"/>
</svg>
