<svg width="37" height="34" viewBox="0 0 37 34" fill="none" xmlns="http://www.w3.org/2000/svg">
<path d="M18.5041 8.28283C13.2544 8.28283 9.01991 12.1748 9.01991 17C9.01991 21.8252 13.2544 25.7172 18.5041 25.7172C23.7539 25.7172 27.9883 21.8252 27.9883 17C27.9883 12.1748 23.7539 8.28283 18.5041 8.28283ZM18.5041 22.6673C15.1116 22.6673 12.3381 20.1257 12.3381 17C12.3381 13.8743 15.1033 11.3327 18.5041 11.3327C21.9049 11.3327 24.6701 13.8743 24.6701 17C24.6701 20.1257 21.8967 22.6673 18.5041 22.6673ZM30.5885 7.92625C30.5885 9.05668 29.5979 9.9595 28.3763 9.9595C27.1464 9.9595 26.1641 9.04909 26.1641 7.92625C26.1641 6.80341 27.1547 5.893 28.3763 5.893C29.5979 5.893 30.5885 6.80341 30.5885 7.92625ZM36.87 9.98985C36.7297 7.26621 36.0528 4.85362 33.8819 2.86589C31.7193 0.878166 29.0944 0.256053 26.1311 0.119491C23.077 -0.0398304 13.923 -0.0398304 10.8689 0.119491C7.91383 0.248466 5.28896 0.870579 3.11807 2.85831C0.947184 4.84603 0.278583 7.25862 0.130006 9.98226C-0.0433352 12.7894 -0.0433352 21.2031 0.130006 24.0102C0.270329 26.7338 0.947184 29.1464 3.11807 31.1341C5.28896 33.1218 7.90558 33.7439 10.8689 33.8805C13.923 34.0398 23.077 34.0398 26.1311 33.8805C29.0944 33.7515 31.7193 33.1294 33.8819 31.1341C36.0446 29.1464 36.7214 26.7338 36.87 24.0102C37.0433 21.2031 37.0433 12.7969 36.87 9.98985ZM32.9244 27.0221C32.2806 28.5091 31.0342 29.6547 29.4081 30.254C26.9731 31.1417 21.195 30.9369 18.5041 30.9369C15.8132 30.9369 10.0269 31.1341 7.60017 30.254C5.98232 29.6623 4.73592 28.5167 4.08383 27.0221C3.11807 24.784 3.34094 19.4733 3.34094 17C3.34094 14.5267 3.12632 9.20841 4.08383 6.97791C4.72766 5.49091 5.97407 4.34531 7.60017 3.74596C10.0352 2.85831 15.8132 3.06315 18.5041 3.06315C21.195 3.06315 26.9813 2.86589 29.4081 3.74596C31.0259 4.33772 32.2723 5.48332 32.9244 6.97791C33.8902 9.216 33.6673 14.5267 33.6673 17C33.6673 19.4733 33.8902 24.7916 32.9244 27.0221Z" fill="#DD2A7B"/>
</svg>
