<svg width="37" height="28" viewBox="0 0 37 28" fill="none" xmlns="http://www.w3.org/2000/svg">
<path d="M33.1968 6.9781C33.2203 7.28434 33.2203 7.59064 33.2203 7.89687C33.2203 17.2375 25.5902 28 11.6447 28C7.34836 28 3.35726 26.8406 0 24.8282C0.61043 24.8937 1.1973 24.9156 1.83122 24.9156C5.37622 24.9156 8.63961 23.8 11.2456 21.8969C7.91182 21.8313 5.11802 19.7969 4.15543 16.9969C4.62502 17.0625 5.09453 17.1062 5.5876 17.1062C6.26842 17.1062 6.94931 17.0187 7.58315 16.8656C4.10853 16.2093 1.50248 13.3656 1.50248 9.93124V9.84377C2.51196 10.3688 3.68592 10.6969 4.93012 10.7406C2.8876 9.47182 1.54945 7.30622 1.54945 4.8562C1.54945 3.54373 1.92502 2.3406 2.58242 1.29059C6.31532 5.57809 11.9264 8.37804 18.2182 8.68435C18.1009 8.15934 18.0304 7.61252 18.0304 7.06563C18.0304 3.17184 21.4112 0 25.6136 0C27.7969 0 29.769 0.853123 31.1542 2.23125C32.868 1.92501 34.5114 1.33436 35.967 0.525004C35.4035 2.16567 34.2062 3.54379 32.6333 4.41873C34.1593 4.26568 35.6384 3.87184 37 3.32502C35.9672 4.72497 34.6759 5.97179 33.1968 6.9781Z" fill="#00ACEE"/>
</svg>
